<mxfile host="app.diagrams.net" modified="2023-08-10T06:55:40.517Z" agent="Mozilla/5.0 (Macintosh; Intel Mac OS X 10_15_7) AppleWebKit/537.36 (KHTML, like Gecko) Chrome/115.0.0.0 Safari/537.36" version="21.6.7" etag="EMmRcwNJeBuCrtkPcvMt" type="github">
  <diagram name="Page-1" id="SpEe3t475_p_80MgITxx">
    <mxGraphModel>
      <root>
        <mxCell id="0" />
        <mxCell id="1" parent="0" />
      </root>
    </mxGraphModel>
  </diagram>
</mxfile>
